<svg width="100.000000" height="100.000000" viewBox="0 0 100 100" fill="none" xmlns="http://www.w3.org/2000/svg" xmlns:xlink="http://www.w3.org/1999/xlink">
	<desc>
			Created with Pixso.
	</desc>
	<defs/>
	<circle id="Ellipse 7" cx="50.000000" cy="50.000000" r="50.000000" fill="#0066FF" fill-opacity="1.000000"/>
	<path id="3" d="M63.16 58.2C63.17 64.16 57.57 68.48 49.73 68.48C42.06 68.48 36.61 64.23 36.48 58.13L43.92 58.13C44.05 60.68 46.49 62.38 49.75 62.38C53.12 62.38 55.51 60.48 55.49 57.69C55.51 54.88 53.04 52.91 49.08 52.91L45.82 52.91L45.82 47.49L49.08 47.49C52.44 47.49 54.77 45.64 54.76 42.88C54.77 40.26 52.78 38.45 49.79 38.45C46.78 38.45 44.34 40.17 44.26 42.83L37.18 42.83C37.29 36.8 42.67 32.6 49.83 32.6C57.06 32.6 61.89 36.94 61.86 42.45C61.89 46.36 59.19 49.13 55.29 49.82L55.29 50.1C60.42 50.75 63.17 53.85 63.16 58.2Z" fill="#FFFFFF" fill-opacity="1.000000" fill-rule="evenodd"/>
</svg>
